HIERARCHY
ROOT Hips
{
   OFFSET 0.00000 0.00000 0.00000
   CHANNELS 6 Xposition Yposition Zposition Zrotation Xrotation Yrotation
   JOINT Spine
   {
      OFFSET 0.000000 11.890501 0.000000
      CHANNELS 3 Zrotation Xrotation Yrotation
      JOINT Spine1
      {
         OFFSET -0.000000 25.657401 0.127660
         CHANNELS 3 Zrotation Xrotation Yrotation
         JOINT HEad
         {
            OFFSET 0.000000 8.734161 0.011340
            CHANNELS 3 Zrotation Xrotation Yrotation
            End Site
            {
               OFFSET -0.290000 12.774200 2.513950
            }
         }
         JOINT LeftShoulder1
         {
            OFFSET 8.990000 -0.362250 -0.220000
            CHANNELS 3 Zrotation Xrotation Yrotation
            JOINT LeftArm
            {
               OFFSET 10.282700 -0.003380 0.322120
               CHANNELS 3 Zrotation Xrotation Yrotation
               JOINT LeftForeArm
               {
                  OFFSET 32.766900 0.099140 -1.424340
                  CHANNELS 3 Zrotation Xrotation Yrotation
                  JOINT LeftHand
                  {
                     OFFSET 27.564301 0.085360 1.022160
                     CHANNELS 3 Zrotation Xrotation Yrotation
                     End Site
                     {
                        OFFSET 16.744301 -0.600000 1.502910
                     }
                  }
               }
            }
         }
         JOINT RightShoulder
         {
            OFFSET -8.990000 -0.362250 -0.220000
            CHANNELS 3 Zrotation Xrotation Yrotation
            JOINT RightArm
            {
               OFFSET -10.282700 -0.003380 0.322120
               CHANNELS 3 Zrotation Xrotation Yrotation
               JOINT RightForeArm
               {
                  OFFSET -32.897098 0.099140 -1.424340
                  CHANNELS 3 Zrotation Xrotation Yrotation
                  JOINT RightHand
                  {
                     OFFSET -27.492101 0.085360 1.022160
                     CHANNELS 3 Zrotation Xrotation Yrotation
                     End Site
                     {
                        OFFSET -16.631201 -0.600000 1.502910
                     }
                  }
               }
            }
         }
      }
   }
   JOINT LeftUpLeg
   {
      OFFSET 8.945800 -8.667070 0.101650
      CHANNELS 3 Zrotation Xrotation Yrotation
      JOINT LeftLeg
      {
         OFFSET 0.000000 -44.422697 1.372700
         CHANNELS 3 Zrotation Xrotation Yrotation
         JOINT LeftFoot
         {
            OFFSET -0.253550 -42.092399 -1.460590
            CHANNELS 3 Zrotation Xrotation Yrotation
            JOINT LeftToes
            {
               OFFSET -0.040000 -4.415090 8.499099
               CHANNELS 3 Zrotation Xrotation Yrotation
               End Site
               {
                  OFFSET 0.080000 -0.047450 9.779790
               }
            }
         }
      }
   }
   JOINT RightUpLeg
   {
      OFFSET -8.945800 -8.667070 0.101650
      CHANNELS 3 Zrotation Xrotation Yrotation
      JOINT RightLeg
      {
         OFFSET 0.000000 -44.422697 1.372700
         CHANNELS 3 Zrotation Xrotation Yrotation
         JOINT RightFoot
         {
            OFFSET 0.253550 -42.092399 -1.460590
            CHANNELS 3 Zrotation Xrotation Yrotation
            JOINT RightToes
            {
               OFFSET 0.040000 -4.415090 8.499099
               CHANNELS 3 Zrotation Xrotation Yrotation
               End Site
               {
                  OFFSET -0.080000 -0.137450 9.779790
               }
            }
         }
      }
   }
}
MOTION
Frames: 13
Frame Time: 0.016670
48.120283 98.794697 17.473054 8.150298 19.379157 135.979805 -14.075808 23.976273 23.325883 14.500370 28.675702 -38.843508 -3.915018 -8.184606 12.684755 -9.884900 -18.438989 4.786954 -126.808636 -9.241074 -135.161671 -77.543274 50.792384 19.020422 -39.909683 -29.541627 -59.226531 -49.261039 38.201053 78.525524 130.384022 135.847108 168.123959 9.133623 210.655520 80.551003 -19.622188 -19.691435 31.011419 10.738889 6.624678 -24.195110 -16.380247 0.570945 124.903615 -8.161770 36.771884 0.433030 39.766423 1.390017 -24.180056 -3.498604 -1.628318 12.394495 9.756116 13.410905 20.195503 -44.358691 27.086097 12.700995 34.305909 -8.386812 -43.476466
48.181915 99.061697 17.974014 6.825881 26.249095 135.405181 -20.938558 26.622874 26.362181 15.317404 30.295553 -37.095922 -12.819971 -11.366896 11.240520 -7.055143 -20.351197 2.699869 -119.431445 -17.780388 -129.196252 -51.271447 45.995402 -9.351531 -39.934402 -31.138921 -59.808866 -53.398634 39.857767 81.848793 128.438306 136.696647 165.592240 7.130172 211.256098 82.358510 -33.100347 -16.568369 21.590848 6.308215 6.594767 -18.895028 -21.367318 7.790311 127.284892 -11.758919 36.852511 1.325647 42.453065 -2.400488 -29.801878 -8.651973 1.963128 15.114915 5.398123 15.319549 18.684426 -32.899884 26.274582 11.056858 22.986964 -7.916106 -42.499811
48.459167 99.113301 18.434916 4.940862 35.415183 130.848994 -26.894824 28.298145 28.065184 14.362153 31.302815 -36.715303 -22.649522 -14.342513 10.333140 -6.152461 -20.812261 1.220588 -108.822843 -33.200901 -120.213201 -30.779045 38.272207 -29.426876 -41.122988 -33.132814 -61.161229 -57.710126 40.218220 84.279241 127.940549 135.431518 162.473644 8.104506 212.424019 87.877043 -12.323966 -23.800575 42.598158 -0.200131 7.815996 -11.336993 -26.851048 13.991046 125.186808 -14.141791 37.485844 1.913224 41.754340 -3.860336 -29.319454 -16.107172 5.383042 18.816920 1.509606 16.800227 16.719707 -23.381585 25.717865 9.927292 10.705606 -7.124955 -40.812989
48.872389 99.124621 18.591944 4.451637 42.708510 125.252911 -32.488775 28.154742 31.436465 11.018496 33.704784 -33.947410 -32.055628 -17.587715 9.763165 -6.557810 -23.219955 -3.627549 -96.366374 -45.678273 -107.084334 -18.766059 24.902332 -37.656441 -41.088632 -27.084418 -49.118247 -65.166241 40.183816 88.950708 128.771933 134.294210 158.925579 5.352967 214.367932 87.985117 -24.042754 -27.617525 37.703597 -5.049112 8.075891 -3.201297 -30.447846 19.923261 119.214941 -18.934000 38.188971 1.220134 31.852225 -9.652832 -37.035109 -22.305793 6.839841 21.342161 -0.386385 17.378658 14.112988 -14.561791 26.155376 9.204297 -1.848490 -6.150711 -39.321013
49.325117 99.151724 18.615213 5.755018 47.977175 118.573928 -38.037016 27.738745 33.586014 7.718265 36.040337 -30.314893 -40.301429 -21.558604 9.456501 -7.853496 -24.097898 -9.107922 -79.882225 -57.663558 -90.920521 -13.856927 11.690656 -40.422470 -46.466607 -36.893407 -66.192668 -71.736596 40.144133 94.766088 130.949835 131.783855 154.931694 3.142645 214.201399 88.333197 -15.830312 -24.123600 39.609544 -6.908498 7.706863 6.668927 -31.001733 26.589523 111.982966 -26.676735 37.491171 0.806549 40.458851 -9.649640 -26.701499 -28.823374 8.693077 23.327603 1.266189 14.404835 10.767999 -8.317872 25.960156 8.751745 -14.361229 -6.755661 -37.302921
49.783148 99.141892 18.497885 7.911946 50.888867 112.752845 -44.240153 25.387057 34.070367 6.481318 35.339385 -24.997842 -45.718199 -25.169647 9.110677 -10.153877 -25.509701 -12.753861 -62.145316 -67.506332 -72.586927 -16.769149 -4.499496 -37.392315 -47.493314 -30.748429 -42.620818 -77.710252 37.493371 99.874619 132.833519 126.760402 151.410281 6.158417 213.207961 87.710441 -24.509133 -23.899366 36.112621 -7.078598 6.674109 15.917206 -26.522487 30.079111 102.350576 -26.371854 36.047027 -1.883247 27.473553 -21.404146 -33.224687 -33.026126 9.837146 25.129816 2.296652 11.672923 7.817712 -1.729197 26.078132 8.206181 -26.584373 -7.467714 -35.637519
50.309433 98.892744 18.496626 11.035456 54.916350 109.302144 -49.358792 23.637637 32.595394 6.332732 34.601735 -20.139450 -49.700503 -27.828836 8.983691 -13.139742 -26.249670 -14.723093 -42.863761 -70.404388 -55.178250 -23.213882 -19.531720 -38.503098 -48.381372 -43.834228 -53.496808 -82.310166 36.242121 103.596122 135.637448 121.660777 148.308515 9.474517 211.234815 89.070844 -18.674208 -19.813880 38.453996 -5.236452 5.560558 26.512076 -22.575756 34.039235 94.644961 -26.673079 33.594313 -3.887943 20.257311 -25.730139 -32.040335 -37.800343 12.588094 27.115808 2.462583 10.566469 5.352989 4.847572 26.125610 7.283074 -38.399812 -8.572161 -34.590209
50.985641 98.360394 18.765735 12.690311 57.413020 106.734649 -53.840961 24.264561 30.560322 5.083866 33.865499 -16.049809 -51.591253 -27.544840 8.843662 -17.873734 -27.993126 -16.020303 -27.359405 -67.805829 -38.859210 -28.893780 -36.000220 -41.272193 -54.594959 -43.841113 -33.256529 -85.078510 34.589420 105.309393 138.802927 117.510263 145.495242 10.777023 207.691778 87.186347 -23.092332 -20.429045 37.412931 -0.913764 2.235330 36.488288 -16.400071 37.267028 87.612940 -27.464500 32.186693 -5.286285 18.578794 -27.655436 -33.025297 -42.169612 13.293214 29.001803 3.739766 9.764549 3.657940 12.616617 25.343446 6.908287 -49.219525 -9.976961 -34.791986
51.744813 97.393597 19.268101 13.375379 58.956185 107.551792 -55.287977 25.172066 27.363083 5.072031 34.050627 -12.785132 -53.098341 -25.343943 9.020903 -19.931073 -29.635873 -18.880753 -13.584780 -58.960167 -27.770057 -33.590884 -50.173887 -46.503551 -56.921482 -54.221966 -43.620429 -87.561154 35.252549 105.800177 142.055914 114.021156 142.308221 11.415799 203.697797 85.432505 -19.438978 -18.946981 35.722227 4.780223 -2.288371 48.228376 -7.205237 39.048711 81.220546 -29.277558 29.573544 -5.633551 25.903185 -31.075346 -31.235934 -44.564976 14.946576 33.088688 6.355698 10.195163 5.300711 -8.985743 24.348475 9.005737 -28.021438 -12.173645 -35.658235
52.336601 96.046189 19.566264 13.049803 59.542311 110.726048 -50.083482 24.850042 24.943422 2.771234 38.641611 -10.276527 -53.130156 -20.476002 9.557189 -22.916239 -27.893267 -22.253202 -4.406249 -43.768778 -16.509981 -40.496038 -60.107256 -55.623018 -57.893974 -49.885376 -40.755787 -87.598897 35.805839 104.808044 146.606227 110.559446 140.916228 9.619180 198.425929 80.030699 -22.696599 -19.225623 29.351509 10.240877 -4.528108 58.323142 -0.344847 34.300804 71.854410 -30.066578 28.620528 -8.169681 33.742859 -30.960954 -30.082889 -45.645027 16.904250 36.347613 10.691110 9.870011 6.788163 -29.827207 24.218654 11.090964 -6.482471 -13.454442 -37.058895
52.809114 94.518393 19.444706 16.980460 59.750263 109.401496 -42.255618 26.285175 21.174360 1.630004 41.493092 -9.068388 -50.055591 -20.095407 10.054768 -16.443991 -34.072207 -24.170977 -5.135868 -25.357962 -5.881684 -45.528549 -65.834452 -65.599377 -58.514442 -54.333895 -47.886299 -81.462888 37.100000 101.074690 156.271600 100.910765 134.086340 6.989018 194.279581 76.741588 -20.240238 -17.876395 28.654826 16.386237 -5.722832 65.020396 4.996413 23.166516 63.556106 -29.530412 30.713045 -8.650614 32.206254 -29.228285 -33.195348 -46.299783 18.326258 37.669986 14.877446 10.801740 6.023150 -25.918049 23.715253 11.251798 -10.876067 -13.539274 -39.447559
53.303146 93.154172 19.253473 26.235259 63.798304 104.146321 -36.887150 29.800891 17.653522 -0.868530 40.996868 -8.202203 -47.311037 -18.690637 10.245120 -14.562650 -41.078892 -24.521730 -9.862154 -14.686684 1.273585 -55.425459 -67.321411 -72.937630 -37.846290 -48.699809 -43.799944 -76.800600 35.152381 97.444888 163.513417 95.586387 126.841831 6.783698 192.754605 78.716960 -31.297412 -18.254186 45.967129 25.027005 -7.033310 70.759510 7.324770 23.025910 56.587929 -29.222596 35.093194 -9.082538 33.686828 -25.458210 -31.141636 -45.909728 23.151705 39.383059 13.565784 17.062449 3.135690 -22.447857 23.602750 9.302323 -14.954190 -11.980765 -42.374220
53.813790 91.828908 18.938603 35.868530 66.201424 95.865544 -29.259356 29.781889 14.612343 -3.173041 41.975126 -5.970942 -46.431513 -15.436190 10.501852 -22.631079 -40.066702 -30.775347 -8.875564 -15.830490 1.667854 -63.081749 -67.895536 -77.641349 -49.020022 -52.989905 -37.939904 -78.299376 34.870394 99.616697 167.877020 97.597345 126.119866 4.355942 190.262323 76.071205 -12.842167 -21.879657 29.651347 36.108966 -11.466135 72.113301 9.753738 23.164284 49.630644 -28.055871 40.932525 -9.436661 35.264222 -20.916433 -34.841516 -48.476028 27.557979 39.607939 13.025274 18.011822 0.891024 -18.640520 22.673399 8.183504 -19.708229 -10.674852 -44.428034
